<?xml version="1.0" encoding="utf-8"?><svg viewBox="0 0 56 66" xmlns="http://www.w3.org/2000/svg" xmlns:xlink="http://www.w3.org/1999/xlink"><style>:root>svg{display:none}:root>svg:target{display:block}</style><svg viewBox="0 0 18 15" id="arrow" xmlns="http://www.w3.org/2000/svg"><path d="M17.497 1.051a.5.5 0 0 0-.446-.548L12.575.04a.5.5 0 0 0-.103.994l3.98.412-.412 3.979a.5.5 0 1 0 .994.103l.463-4.477ZM1.315 14.388l16-13-.63-.776-16 13 .63.776Z"/></svg><svg viewBox="0 0 12 16" id="location" xmlns="http://www.w3.org/2000/svg"><path d="M6 7.625a1.875 1.875 0 1 1 0-3.75 1.875 1.875 0 0 1 0 3.75ZM6 .5A5.25 5.25 0 0 0 .75 5.75C.75 9.688 6 15.5 6 15.5s5.25-5.813 5.25-9.75A5.25 5.25 0 0 0 6 .5Z"/></svg><svg viewBox="0 0 17 16" id="phone" xmlns="http://www.w3.org/2000/svg"><path d="M3.792 6.941a13.255 13.255 0 0 0 5.767 5.766l1.925-1.925a.87.87 0 0 1 .892-.21c.98.324 2.039.5 3.124.5.481 0 .875.393.875.874V15a.878.878 0 0 1-.875.875C7.284 15.875.625 9.216.625 1c0-.481.394-.875.875-.875h3.063c.48 0 .875.394.875.875a9.94 9.94 0 0 0 .498 3.124.878.878 0 0 1-.218.892L3.793 6.941Z"/></svg><svg viewBox="0 0 56 66" id="play" xmlns="http://www.w3.org/2000/svg"><path d="M56 33 .5.957v64.086L56 33Z"/></svg></svg>